<svg xmlns="http://www.w3.org/2000/svg" width="320" height="1780" viewBox="0 0 320 1780"><rect width="320" height="1780" fill="#ffffff"/><text x="20" y="14" font-family="sans-serif" font-size="11" fill="#111">flower      (motif: disc + repeat:radial) — identical</text><g transform="translate(20,20)"><rect x="0" y="0" width="100" height="100" fill="none" stroke="#cccccc" stroke-dasharray="3 3"/><circle cx="50" cy="50" r="20.400000000000002" fill="#d24a45"/><circle cx="70.4" cy="50" r="6.3" fill="#d24a45"/><circle cx="68.84714246323026" cy="57.80674202024783" r="6.3" fill="#d24a45"/><circle cx="64.42497833620557" cy="64.42497833620557" r="6.3" fill="#d24a45"/><circle cx="57.80674202024783" cy="68.84714246323026" r="6.3" fill="#d24a45"/><circle cx="50" cy="70.4" r="6.3" fill="#d24a45"/><circle cx="42.19325797975217" cy="68.84714246323026" r="6.3" fill="#d24a45"/><circle cx="35.57502166379443" cy="64.42497833620557" r="6.3" fill="#d24a45"/><circle cx="31.152857536769748" cy="57.80674202024783" r="6.3" fill="#d24a45"/><circle cx="29.599999999999998" cy="50" r="6.3" fill="#d24a45"/><circle cx="31.152857536769748" cy="42.19325797975217" r="6.3" fill="#d24a45"/><circle cx="35.57502166379442" cy="35.57502166379443" r="6.3" fill="#d24a45"/><circle cx="42.193257979752154" cy="31.15285753676975" r="6.3" fill="#d24a45"/><circle cx="49.99999999999999" cy="29.599999999999998" r="6.3" fill="#d24a45"/><circle cx="57.80674202024784" cy="31.15285753676975" r="6.3" fill="#d24a45"/><circle cx="64.42497833620557" cy="35.57502166379442" r="6.3" fill="#d24a45"/><circle cx="68.84714246323026" cy="42.193257979752154" r="6.3" fill="#d24a45"/><text x="0" y="118" font-family="sans-serif" font-size="9" fill="#333">legacy girard</text></g><g transform="translate(170,20)"><rect x="0" y="0" width="100" height="100" fill="none" stroke="#cccccc" stroke-dasharray="3 3"/><circle cx="50" cy="50" r="20.400000000000002" fill="#d24a45"/><circle cx="70.4" cy="50" r="6.3" fill="#d24a45"/><circle cx="68.84714246323026" cy="57.80674202024783" r="6.3" fill="#d24a45"/><circle cx="64.42497833620557" cy="64.42497833620557" r="6.3" fill="#d24a45"/><circle cx="57.80674202024783" cy="68.84714246323026" r="6.3" fill="#d24a45"/><circle cx="50" cy="70.4" r="6.3" fill="#d24a45"/><circle cx="42.19325797975217" cy="68.84714246323026" r="6.3" fill="#d24a45"/><circle cx="35.57502166379443" cy="64.42497833620557" r="6.3" fill="#d24a45"/><circle cx="31.152857536769748" cy="57.80674202024783" r="6.3" fill="#d24a45"/><circle cx="29.599999999999998" cy="50" r="6.3" fill="#d24a45"/><circle cx="31.152857536769748" cy="42.19325797975217" r="6.3" fill="#d24a45"/><circle cx="35.57502166379442" cy="35.57502166379443" r="6.3" fill="#d24a45"/><circle cx="42.193257979752154" cy="31.15285753676975" r="6.3" fill="#d24a45"/><circle cx="49.99999999999999" cy="29.599999999999998" r="6.3" fill="#d24a45"/><circle cx="57.80674202024784" cy="31.15285753676975" r="6.3" fill="#d24a45"/><circle cx="64.42497833620557" cy="35.57502166379442" r="6.3" fill="#d24a45"/><circle cx="68.84714246323026" cy="42.193257979752154" r="6.3" fill="#d24a45"/><text x="0" y="118" font-family="sans-serif" font-size="9" fill="#333">element-ir</text></g><text x="20" y="174" font-family="sans-serif" font-size="11" fill="#111">stripes     (split: split:y + rect/band) — identical</text><g transform="translate(20,180)"><rect x="0" y="0" width="100" height="100" fill="none" stroke="#cccccc" stroke-dasharray="3 3"/><rect x="0" y="0" width="100" height="16.666666666666668" fill="#d24a45"/><rect x="0" y="16.666666666666668" width="100" height="16.666666666666668" fill="#2c7fb8"/><rect x="0" y="33.333333333333336" width="100" height="16.666666666666668" fill="#f2b933"/><rect x="0" y="50" width="100" height="16.666666666666668" fill="#3f7a8c"/><rect x="0" y="66.66666666666667" width="100" height="16.666666666666668" fill="#7d9a40"/><rect x="0" y="83.33333333333334" width="100" height="16.666666666666668" fill="#8a5fb0"/><text x="0" y="118" font-family="sans-serif" font-size="9" fill="#333">legacy girard</text></g><g transform="translate(170,180)"><rect x="0" y="0" width="100" height="100" fill="none" stroke="#cccccc" stroke-dasharray="3 3"/><rect x="0" y="0" width="100" height="16.666666666666668" fill="#d24a45"/><rect x="0" y="16.666666666666668" width="100" height="16.666666666666668" fill="#2c7fb8"/><rect x="0" y="33.333333333333336" width="100" height="16.666666666666668" fill="#f2b933"/><rect x="0" y="50" width="100" height="16.666666666666668" fill="#3f7a8c"/><rect x="0" y="66.66666666666667" width="100" height="16.666666666666668" fill="#7d9a40"/><rect x="0" y="83.33333333333334" width="100" height="16.666666666666668" fill="#8a5fb0"/><text x="0" y="118" font-family="sans-serif" font-size="9" fill="#333">element-ir</text></g><text x="20" y="334" font-family="sans-serif" font-size="11" fill="#111">arc-split   (divide: rect + wedge) — identical</text><g transform="translate(20,340)"><rect x="0" y="0" width="100" height="100" fill="none" stroke="#cccccc" stroke-dasharray="3 3"/><rect x="0" y="0" width="100" height="100" fill="#e7e2d6"/><path d="M100,0 L100,100 A100,100 0 0,1 0,0 Z" fill="#d24a45"/><text x="0" y="118" font-family="sans-serif" font-size="9" fill="#333">legacy girard</text></g><g transform="translate(170,340)"><rect x="0" y="0" width="100" height="100" fill="none" stroke="#cccccc" stroke-dasharray="3 3"/><rect x="0" y="0" width="100" height="100" fill="#e7e2d6"/><path d="M100,0 L100,100 A100,100 0 0,1 0,0 Z" fill="#d24a45"/><text x="0" y="118" font-family="sans-serif" font-size="9" fill="#333">element-ir</text></g><text x="20" y="494" font-family="sans-serif" font-size="11" fill="#111">triangle    (poly:3) — identical</text><g transform="translate(20,500)"><rect x="0" y="0" width="100" height="100" fill="none" stroke="#cccccc" stroke-dasharray="3 3"/><polygon points="50,20 75.98,65 24.02,65" fill="#d24a45"/><text x="0" y="118" font-family="sans-serif" font-size="9" fill="#333">legacy girard</text></g><g transform="translate(170,500)"><rect x="0" y="0" width="100" height="100" fill="none" stroke="#cccccc" stroke-dasharray="3 3"/><polygon points="50.00,20.00 75.98,65.00 24.02,65.00" fill="#d24a45"/><text x="0" y="118" font-family="sans-serif" font-size="9" fill="#333">element-ir</text></g><text x="20" y="654" font-family="sans-serif" font-size="11" fill="#111">star        (poly:5 depth) — identical</text><g transform="translate(20,660)"><rect x="0" y="0" width="100" height="100" fill="none" stroke="#cccccc" stroke-dasharray="3 3"/><polygon points="50.00,20.00 58.82,37.86 78.53,40.73 64.27,54.64 67.63,74.27 50.00,65.00 32.37,74.27 35.73,54.64 21.47,40.73 41.18,37.86" fill="#d24a45"/><text x="0" y="118" font-family="sans-serif" font-size="9" fill="#333">legacy girard</text></g><g transform="translate(170,660)"><rect x="0" y="0" width="100" height="100" fill="none" stroke="#cccccc" stroke-dasharray="3 3"/><polygon points="50.00,20.00 58.82,37.86 78.53,40.73 64.27,54.64 67.63,74.27 50.00,65.00 32.37,74.27 35.73,54.64 21.47,40.73 41.18,37.86" fill="#d24a45"/><text x="0" y="118" font-family="sans-serif" font-size="9" fill="#333">element-ir</text></g><text x="20" y="814" font-family="sans-serif" font-size="11" fill="#111">diamond     (nest poly:4) — identical</text><g transform="translate(20,820)"><rect x="0" y="0" width="100" height="100" fill="none" stroke="#cccccc" stroke-dasharray="3 3"/><polygon points="50.00,0.00 100.00,50.00 50.00,100.00 0.00,50.00" fill="#d24a45"/><polygon points="50.00,16.67 83.33,50.00 50.00,83.33 16.67,50.00" fill="#2c7fb8"/><polygon points="50.00,33.33 66.67,50.00 50.00,66.67 33.33,50.00" fill="#f2b933"/><text x="0" y="118" font-family="sans-serif" font-size="9" fill="#333">legacy girard</text></g><g transform="translate(170,820)"><rect x="0" y="0" width="100" height="100" fill="none" stroke="#cccccc" stroke-dasharray="3 3"/><polygon points="50.00,0.00 100.00,50.00 50.00,100.00 0.00,50.00" fill="#d24a45"/><polygon points="50.00,16.67 83.33,50.00 50.00,83.33 16.67,50.00" fill="#2c7fb8"/><polygon points="50.00,33.33 66.67,50.00 50.00,66.67 33.33,50.00" fill="#f2b933"/><text x="0" y="118" font-family="sans-serif" font-size="9" fill="#333">element-ir</text></g><text x="20" y="974" font-family="sans-serif" font-size="11" fill="#111">quatrefoil  (group of discs) — identical</text><g transform="translate(20,980)"><rect x="0" y="0" width="100" height="100" fill="none" stroke="#cccccc" stroke-dasharray="3 3"/><circle cx="35" cy="35" r="15" fill="#d24a45"/><circle cx="65" cy="35" r="15" fill="#d24a45"/><circle cx="35" cy="65" r="15" fill="#d24a45"/><circle cx="65" cy="65" r="15" fill="#d24a45"/><circle cx="50" cy="50" r="15" fill="#d24a45"/><text x="0" y="118" font-family="sans-serif" font-size="9" fill="#333">legacy girard</text></g><g transform="translate(170,980)"><rect x="0" y="0" width="100" height="100" fill="none" stroke="#cccccc" stroke-dasharray="3 3"/><circle cx="35" cy="35" r="15" fill="#d24a45"/><circle cx="65" cy="35" r="15" fill="#d24a45"/><circle cx="35" cy="65" r="15" fill="#d24a45"/><circle cx="65" cy="65" r="15" fill="#d24a45"/><circle cx="50" cy="50" r="15" fill="#d24a45"/><text x="0" y="118" font-family="sans-serif" font-size="9" fill="#333">element-ir</text></g><text x="20" y="1134" font-family="sans-serif" font-size="11" fill="#111">square      (poly:4 rot45 -> polygon vs rect) — visual A/B</text><g transform="translate(20,1140)"><rect x="0" y="0" width="100" height="100" fill="none" stroke="#cccccc" stroke-dasharray="3 3"/><rect x="20" y="20" width="60" height="60" fill="#d24a45"/><text x="0" y="118" font-family="sans-serif" font-size="9" fill="#333">legacy girard</text></g><g transform="translate(170,1140)"><rect x="0" y="0" width="100" height="100" fill="none" stroke="#cccccc" stroke-dasharray="3 3"/><polygon points="71.21,28.79 71.21,71.21 28.79,71.21 28.79,28.79" fill="#d24a45"/><text x="0" y="118" font-family="sans-serif" font-size="9" fill="#333">element-ir</text></g><text x="20" y="1294" font-family="sans-serif" font-size="11" fill="#111">pentagon    (poly:5 — new) — visual A/B</text><g transform="translate(20,1300)"><rect x="0" y="0" width="100" height="100" fill="none" stroke="#cccccc" stroke-dasharray="3 3"/><text x="0" y="118" font-family="sans-serif" font-size="9" fill="#333">(no legacy)</text></g><g transform="translate(170,1300)"><rect x="0" y="0" width="100" height="100" fill="none" stroke="#cccccc" stroke-dasharray="3 3"/><polygon points="50.00,20.00 78.53,40.73 67.63,74.27 32.37,74.27 21.47,40.73" fill="#d24a45"/><text x="0" y="118" font-family="sans-serif" font-size="9" fill="#333">element-ir</text></g><text x="20" y="1454" font-family="sans-serif" font-size="11" fill="#111">hexagon     (poly:6 — new) — visual A/B</text><g transform="translate(20,1460)"><rect x="0" y="0" width="100" height="100" fill="none" stroke="#cccccc" stroke-dasharray="3 3"/><text x="0" y="118" font-family="sans-serif" font-size="9" fill="#333">(no legacy)</text></g><g transform="translate(170,1460)"><rect x="0" y="0" width="100" height="100" fill="none" stroke="#cccccc" stroke-dasharray="3 3"/><polygon points="65.00,24.02 80.00,50.00 65.00,75.98 35.00,75.98 20.00,50.00 35.00,24.02" fill="#d24a45"/><text x="0" y="118" font-family="sans-serif" font-size="9" fill="#333">element-ir</text></g><text x="20" y="1614" font-family="sans-serif" font-size="11" fill="#111">lens        (boolean: disc ∩ disc) — visual A/B</text><g transform="translate(20,1620)"><rect x="0" y="0" width="100" height="100" fill="none" stroke="#cccccc" stroke-dasharray="3 3"/><text x="0" y="118" font-family="sans-serif" font-size="9" fill="#333">(no legacy)</text></g><g transform="translate(170,1620)"><rect x="0" y="0" width="100" height="100" fill="none" stroke="#cccccc" stroke-dasharray="3 3"/><clipPath id="ir-clip-1"><circle cx="30.8" cy="50" r="30" fill="#000"/></clipPath><g clip-path="url(#ir-clip-1)"><circle cx="69.2" cy="50" r="30" fill="#d24a45"/></g><text x="0" y="118" font-family="sans-serif" font-size="9" fill="#333">element-ir</text></g></svg>