<svg xmlns="http://www.w3.org/2000/svg" width="320" height="500" viewBox="0 0 320 500"><rect width="320" height="500" fill="#ffffff"/><text x="20" y="14" font-family="sans-serif" font-size="11" fill="#111">flower  (motif: disc + repeat:radial) — PASS</text><g transform="translate(20,20)"><rect x="0" y="0" width="100" height="100" fill="none" stroke="#cccccc" stroke-dasharray="3 3"/><circle cx="50" cy="50" r="20.400000000000002" fill="#d24a45"/><circle cx="70.4" cy="50" r="6.3" fill="#d24a45"/><circle cx="68.84714246323026" cy="57.80674202024783" r="6.3" fill="#d24a45"/><circle cx="64.42497833620557" cy="64.42497833620557" r="6.3" fill="#d24a45"/><circle cx="57.80674202024783" cy="68.84714246323026" r="6.3" fill="#d24a45"/><circle cx="50" cy="70.4" r="6.3" fill="#d24a45"/><circle cx="42.19325797975217" cy="68.84714246323026" r="6.3" fill="#d24a45"/><circle cx="35.57502166379443" cy="64.42497833620557" r="6.3" fill="#d24a45"/><circle cx="31.152857536769748" cy="57.80674202024783" r="6.3" fill="#d24a45"/><circle cx="29.599999999999998" cy="50" r="6.3" fill="#d24a45"/><circle cx="31.152857536769748" cy="42.19325797975217" r="6.3" fill="#d24a45"/><circle cx="35.57502166379442" cy="35.57502166379443" r="6.3" fill="#d24a45"/><circle cx="42.193257979752154" cy="31.15285753676975" r="6.3" fill="#d24a45"/><circle cx="49.99999999999999" cy="29.599999999999998" r="6.3" fill="#d24a45"/><circle cx="57.80674202024784" cy="31.15285753676975" r="6.3" fill="#d24a45"/><circle cx="64.42497833620557" cy="35.57502166379442" r="6.3" fill="#d24a45"/><circle cx="68.84714246323026" cy="42.193257979752154" r="6.3" fill="#d24a45"/><text x="0" y="118" font-family="sans-serif" font-size="9" fill="#333">legacy girard</text></g><g transform="translate(170,20)"><rect x="0" y="0" width="100" height="100" fill="none" stroke="#cccccc" stroke-dasharray="3 3"/><circle cx="50" cy="50" r="20.400000000000002" fill="#d24a45"/><circle cx="70.4" cy="50" r="6.3" fill="#d24a45"/><circle cx="68.84714246323026" cy="57.80674202024783" r="6.3" fill="#d24a45"/><circle cx="64.42497833620557" cy="64.42497833620557" r="6.3" fill="#d24a45"/><circle cx="57.80674202024783" cy="68.84714246323026" r="6.3" fill="#d24a45"/><circle cx="50" cy="70.4" r="6.3" fill="#d24a45"/><circle cx="42.19325797975217" cy="68.84714246323026" r="6.3" fill="#d24a45"/><circle cx="35.57502166379443" cy="64.42497833620557" r="6.3" fill="#d24a45"/><circle cx="31.152857536769748" cy="57.80674202024783" r="6.3" fill="#d24a45"/><circle cx="29.599999999999998" cy="50" r="6.3" fill="#d24a45"/><circle cx="31.152857536769748" cy="42.19325797975217" r="6.3" fill="#d24a45"/><circle cx="35.57502166379442" cy="35.57502166379443" r="6.3" fill="#d24a45"/><circle cx="42.193257979752154" cy="31.15285753676975" r="6.3" fill="#d24a45"/><circle cx="49.99999999999999" cy="29.599999999999998" r="6.3" fill="#d24a45"/><circle cx="57.80674202024784" cy="31.15285753676975" r="6.3" fill="#d24a45"/><circle cx="64.42497833620557" cy="35.57502166379442" r="6.3" fill="#d24a45"/><circle cx="68.84714246323026" cy="42.193257979752154" r="6.3" fill="#d24a45"/><text x="0" y="118" font-family="sans-serif" font-size="9" fill="#333">element-ir</text></g><text x="20" y="174" font-family="sans-serif" font-size="11" fill="#111">stripes (split: split:y + rect/band) — PASS</text><g transform="translate(20,180)"><rect x="0" y="0" width="100" height="100" fill="none" stroke="#cccccc" stroke-dasharray="3 3"/><rect x="0" y="0" width="100" height="16.666666666666668" fill="#d24a45"/><rect x="0" y="16.666666666666668" width="100" height="16.666666666666668" fill="#2c7fb8"/><rect x="0" y="33.333333333333336" width="100" height="16.666666666666668" fill="#f2b933"/><rect x="0" y="50" width="100" height="16.666666666666668" fill="#3f7a8c"/><rect x="0" y="66.66666666666667" width="100" height="16.666666666666668" fill="#7d9a40"/><rect x="0" y="83.33333333333334" width="100" height="16.666666666666668" fill="#8a5fb0"/><text x="0" y="118" font-family="sans-serif" font-size="9" fill="#333">legacy girard</text></g><g transform="translate(170,180)"><rect x="0" y="0" width="100" height="100" fill="none" stroke="#cccccc" stroke-dasharray="3 3"/><rect x="0" y="0" width="100" height="16.666666666666668" fill="#d24a45"/><rect x="0" y="16.666666666666668" width="100" height="16.666666666666668" fill="#2c7fb8"/><rect x="0" y="33.333333333333336" width="100" height="16.666666666666668" fill="#f2b933"/><rect x="0" y="50" width="100" height="16.666666666666668" fill="#3f7a8c"/><rect x="0" y="66.66666666666667" width="100" height="16.666666666666668" fill="#7d9a40"/><rect x="0" y="83.33333333333334" width="100" height="16.666666666666668" fill="#8a5fb0"/><text x="0" y="118" font-family="sans-serif" font-size="9" fill="#333">element-ir</text></g><text x="20" y="334" font-family="sans-serif" font-size="11" fill="#111">arc-split (divide: rect + wedge) — PASS</text><g transform="translate(20,340)"><rect x="0" y="0" width="100" height="100" fill="none" stroke="#cccccc" stroke-dasharray="3 3"/><rect x="0" y="0" width="100" height="100" fill="#e7e2d6"/><path d="M100,0 L100,100 A100,100 0 0,1 0,0 Z" fill="#d24a45"/><text x="0" y="118" font-family="sans-serif" font-size="9" fill="#333">legacy girard</text></g><g transform="translate(170,340)"><rect x="0" y="0" width="100" height="100" fill="none" stroke="#cccccc" stroke-dasharray="3 3"/><rect x="0" y="0" width="100" height="100" fill="#e7e2d6"/><path d="M100,0 L100,100 A100,100 0 0,1 0,0 Z" fill="#d24a45"/><text x="0" y="118" font-family="sans-serif" font-size="9" fill="#333">element-ir</text></g></svg>